<svg width="34" height="34" viewBox="0 0 34 34" fill="none" xmlns="http://www.w3.org/2000/svg">
<rect width="34" height="34" rx="17" fill="#F8F8F8"/>
<path d="M15.6255 24.1401C15.7648 24.3813 15.965 24.5816 16.2062 24.7208C16.4474 24.8601 16.721 24.9334 16.9995 24.9334C17.278 24.9334 17.5516 24.8601 17.7928 24.7208C18.034 24.5816 18.2343 24.3813 18.3736 24.1401" stroke="#161C2B" stroke-width="1.36" stroke-linecap="round" stroke-linejoin="round"/>
<path d="M18.5202 9.31612C17.8042 9.07484 17.041 9.00748 16.2938 9.11959C15.5466 9.2317 14.8369 9.52008 14.2232 9.96086C13.6095 10.4016 13.1096 10.9822 12.7648 11.6545C12.42 12.3267 12.2401 13.0715 12.2401 13.827C12.2401 17.3962 11.1208 18.5521 10.0664 19.6398C9.96294 19.7535 9.89474 19.8948 9.87011 20.0466C9.84548 20.1983 9.86548 20.354 9.92767 20.4946C9.98986 20.6352 10.0916 20.7547 10.2204 20.8386C10.3493 20.9224 10.4997 20.9671 10.6535 20.967H23.3468C23.5006 20.9671 23.651 20.9224 23.7799 20.8386C23.9087 20.7547 24.0104 20.6352 24.0726 20.4946C24.1348 20.354 24.1548 20.1983 24.1302 20.0466C24.1056 19.8948 24.0374 19.7535 23.9339 19.6398C23.7706 19.4716 23.6157 19.2956 23.4698 19.1122" stroke="#161C2B" stroke-width="1.36" stroke-linecap="round" stroke-linejoin="round"/>
<path d="M21.7604 16.2068C23.0748 16.2068 24.1404 15.1412 24.1404 13.8268C24.1404 12.5123 23.0748 11.4468 21.7604 11.4468C20.4459 11.4468 19.3804 12.5123 19.3804 13.8268C19.3804 15.1412 20.4459 16.2068 21.7604 16.2068Z" stroke="#1E60DB" stroke-width="1.36" stroke-linecap="round" stroke-linejoin="round"/>
</svg>
